<?xml version="1.0" encoding="UTF-8" standalone="no"?>
<!DOCTYPE svg PUBLIC "-//W3C//DTD SVG 1.1//EN"
 "http://www.w3.org/Graphics/SVG/1.1/DTD/svg11.dtd">
<!-- Generated by graphviz version 2.43.0 (0)
 -->
<!-- Title: G Pages: 1 -->
<svg width="424pt" height="298pt"
 viewBox="0.00 0.00 424.00 297.60" xmlns="http://www.w3.org/2000/svg" xmlns:xlink="http://www.w3.org/1999/xlink">
<g id="graph0" class="graph" transform="scale(1 1) rotate(0) translate(4 293.6)">
<title>G</title>
<polygon fill="white" stroke="transparent" points="-4,4 -4,-293.6 420,-293.6 420,4 -4,4"/>
<g id="clust1" class="cluster">
<title>cluster_2</title>
</g>
<g id="clust2" class="cluster">
<title>cluster_1</title>
</g>
<!-- 1 -->
<g id="node1" class="node">
<title>1</title>
<ellipse fill="none" stroke="black" cx="116" cy="-255.6" rx="18" ry="18"/>
<text text-anchor="middle" x="116" y="-251.9" font-family="Times,serif" font-size="14.00">1</text>
</g>
<!-- 2 -->
<g id="node2" class="node">
<title>2</title>
<ellipse fill="#fb6a4a" stroke="black" cx="88" cy="-183.6" rx="18" ry="18"/>
<text text-anchor="middle" x="88" y="-179.9" font-family="Times,serif" font-size="14.00">2</text>
</g>
<!-- 1&#45;&#45;2 -->
<g id="edge1" class="edge">
<title>1&#45;&#45;2</title>
<path fill="none" stroke="black" d="M109.65,-238.71C105.13,-227.42 99.08,-212.29 94.52,-200.9"/>
</g>
<!-- 3 -->
<g id="node3" class="node">
<title>3</title>
<ellipse fill="none" stroke="black" cx="145" cy="-183.6" rx="18" ry="18"/>
<text text-anchor="middle" x="145" y="-179.9" font-family="Times,serif" font-size="14.00">3</text>
</g>
<!-- 1&#45;&#45;3 -->
<g id="edge2" class="edge">
<title>1&#45;&#45;3</title>
<path fill="none" stroke="black" d="M122.58,-238.71C127.33,-227.26 133.71,-211.86 138.45,-200.42"/>
</g>
<!-- 4 -->
<g id="node4" class="node">
<title>4</title>
<ellipse fill="#fb6a4a" stroke="black" cx="34" cy="-108.8" rx="18" ry="18"/>
<text text-anchor="middle" x="34" y="-105.1" font-family="Times,serif" font-size="14.00">4</text>
</g>
<!-- 2&#45;&#45;4 -->
<g id="edge3" class="edge">
<title>2&#45;&#45;4</title>
<path fill="none" stroke="black" d="M77.59,-168.56C68.03,-155.67 53.93,-136.67 44.38,-123.79"/>
</g>
<!-- 5 -->
<g id="node5" class="node">
<title>5</title>
<ellipse fill="#fb6a4a" stroke="black" cx="88" cy="-108.8" rx="18" ry="18"/>
<text text-anchor="middle" x="88" y="-105.1" font-family="Times,serif" font-size="14.00">5</text>
</g>
<!-- 2&#45;&#45;5 -->
<g id="edge4" class="edge">
<title>2&#45;&#45;5</title>
<path fill="none" stroke="black" d="M88,-165.34C88,-153.74 88,-138.51 88,-126.93"/>
</g>
<!-- t1 -->
<!-- 3&#45;&#45;t1 -->
<!-- 6 -->
<g id="node7" class="node">
<title>6</title>
<ellipse fill="none" stroke="black" cx="202" cy="-108.8" rx="18" ry="18"/>
<text text-anchor="middle" x="202" y="-105.1" font-family="Times,serif" font-size="14.00">6</text>
</g>
<!-- 3&#45;&#45;6 -->
<g id="edge6" class="edge">
<title>3&#45;&#45;6</title>
<path fill="none" stroke="black" d="M155.72,-168.9C165.91,-155.89 181.15,-136.42 191.33,-123.43"/>
</g>
<!-- 7 -->
<g id="node8" class="node">
<title>7</title>
<ellipse fill="#fb6a4a" stroke="black" cx="88" cy="-34" rx="18" ry="18"/>
<text text-anchor="middle" x="88" y="-30.3" font-family="Times,serif" font-size="14.00">7</text>
</g>
<!-- 5&#45;&#45;7 -->
<g id="edge7" class="edge">
<title>5&#45;&#45;7</title>
<path fill="none" stroke="black" d="M88,-90.55C88,-78.94 88,-63.71 88,-52.13"/>
</g>
<!-- t -->
<g id="node9" class="node">
<title>t</title>
<polygon fill="none" stroke="black" points="252,-242.6 252,-267.6 272,-267.6 272,-242.6 252,-242.6"/>
<text text-anchor="start" x="257" y="-251.4" font-family="Times,serif" font-size="14.00">1</text>
<polygon fill="#fb6a4a" stroke="transparent" points="272,-242.6 272,-267.6 292,-267.6 292,-242.6 272,-242.6"/>
<polygon fill="none" stroke="black" points="272,-242.6 272,-267.6 292,-267.6 292,-242.6 272,-242.6"/>
<text text-anchor="start" x="277" y="-251.4" font-family="Times,serif" font-size="14.00">2</text>
<polygon fill="#fb6a4a" stroke="transparent" points="292,-242.6 292,-267.6 312,-267.6 312,-242.6 292,-242.6"/>
<polygon fill="none" stroke="black" points="292,-242.6 292,-267.6 312,-267.6 312,-242.6 292,-242.6"/>
<text text-anchor="start" x="297" y="-251.4" font-family="Times,serif" font-size="14.00">4</text>
<polygon fill="#fb6a4a" stroke="transparent" points="312,-242.6 312,-267.6 332,-267.6 332,-242.6 312,-242.6"/>
<polygon fill="none" stroke="black" points="312,-242.6 312,-267.6 332,-267.6 332,-242.6 312,-242.6"/>
<text text-anchor="start" x="317" y="-251.4" font-family="Times,serif" font-size="14.00">5</text>
<polygon fill="#fb6a4a" stroke="transparent" points="332,-242.6 332,-267.6 352,-267.6 352,-242.6 332,-242.6"/>
<polygon fill="none" stroke="black" points="332,-242.6 332,-267.6 352,-267.6 352,-242.6 332,-242.6"/>
<text text-anchor="start" x="337" y="-251.4" font-family="Times,serif" font-size="14.00">7</text>
<polygon fill="none" stroke="black" points="352,-242.6 352,-267.6 372,-267.6 372,-242.6 352,-242.6"/>
<text text-anchor="start" x="357" y="-251.4" font-family="Times,serif" font-size="14.00">3</text>
<polygon fill="none" stroke="black" points="372,-242.6 372,-267.6 392,-267.6 392,-242.6 372,-242.6"/>
<text text-anchor="start" x="377" y="-251.4" font-family="Times,serif" font-size="14.00">6</text>
</g>
<!-- a -->
<g id="node10" class="node">
<title>a</title>
<text text-anchor="start" x="243" y="-167.6" font-family="Times,serif" font-size="14.00">Start[1]=1</text>
<text text-anchor="start" x="329.5" y="-167.6" font-family="Times,serif" font-size="14.00">End[1]=7</text>
<text text-anchor="start" x="243" y="-146.6" font-family="Times,serif" font-size="14.00" fill="#fb6a4a">Start[2]=2</text>
<text text-anchor="start" x="327" y="-147.6" font-family="Times,serif" font-size="14.00"> </text>
<text text-anchor="start" x="332" y="-147.6" font-family="Times,serif" font-size="14.00" fill="#fb6a4a">End[2]=5</text>
<text text-anchor="start" x="243" y="-125.6" font-family="Times,serif" font-size="14.00">Start[3]=6</text>
<text text-anchor="start" x="329.5" y="-125.6" font-family="Times,serif" font-size="14.00">End[3]=7</text>
<text text-anchor="start" x="243" y="-104.6" font-family="Times,serif" font-size="14.00">Start[4]=3</text>
<text text-anchor="start" x="329.5" y="-104.6" font-family="Times,serif" font-size="14.00">End[4]=3</text>
<text text-anchor="start" x="243" y="-83.6" font-family="Times,serif" font-size="14.00">Start[5]=4</text>
<text text-anchor="start" x="329.5" y="-83.6" font-family="Times,serif" font-size="14.00">End[5]=5</text>
<text text-anchor="start" x="243" y="-62.6" font-family="Times,serif" font-size="14.00">Start[6]=7</text>
<text text-anchor="start" x="329.5" y="-62.6" font-family="Times,serif" font-size="14.00">End[6]=7</text>
<text text-anchor="start" x="243" y="-41.6" font-family="Times,serif" font-size="14.00">Start[7]=5</text>
<text text-anchor="start" x="329.5" y="-41.6" font-family="Times,serif" font-size="14.00">End[7]=5</text>
</g>
<!-- t&#45;&#45;a -->
</g>
</svg>
