<?xml version="1.0" encoding="UTF-8" standalone="no"?>
<!DOCTYPE svg PUBLIC "-//W3C//DTD SVG 1.1//EN"
 "http://www.w3.org/Graphics/SVG/1.1/DTD/svg11.dtd">
<!-- Generated by graphviz version 2.43.0 (0)
 -->
<!-- Title: G Pages: 1 -->
<svg width="212pt" height="266pt"
 viewBox="0.00 0.00 212.00 265.60" xmlns="http://www.w3.org/2000/svg" xmlns:xlink="http://www.w3.org/1999/xlink">
<g id="graph0" class="graph" transform="scale(1 1) rotate(0) translate(4 261.6)">
<title>G</title>
<polygon fill="white" stroke="transparent" points="-4,4 -4,-261.6 208,-261.6 208,4 -4,4"/>
<!-- 1 -->
<g id="node1" class="node">
<title>1</title>
<ellipse fill="none" stroke="black" cx="100" cy="-239.6" rx="18" ry="18"/>
<text text-anchor="middle" x="100" y="-235.9" font-family="Times,serif" font-size="14.00">1</text>
</g>
<!-- 2 -->
<g id="node2" class="node">
<title>2</title>
<ellipse fill="none" stroke="black" cx="72" cy="-167.6" rx="18" ry="18"/>
<text text-anchor="middle" x="72" y="-163.9" font-family="Times,serif" font-size="14.00">2</text>
</g>
<!-- 1&#45;&#45;2 -->
<g id="edge1" class="edge">
<title>1&#45;&#45;2</title>
<path fill="none" stroke="black" d="M93.65,-222.71C89.13,-211.42 83.08,-196.29 78.52,-184.9"/>
</g>
<!-- 3 -->
<g id="node3" class="node">
<title>3</title>
<ellipse fill="none" stroke="black" cx="129" cy="-167.6" rx="18" ry="18"/>
<text text-anchor="middle" x="129" y="-163.9" font-family="Times,serif" font-size="14.00">3</text>
</g>
<!-- 1&#45;&#45;3 -->
<g id="edge2" class="edge">
<title>1&#45;&#45;3</title>
<path fill="none" stroke="black" d="M106.58,-222.71C111.33,-211.26 117.71,-195.86 122.45,-184.42"/>
</g>
<!-- 4 -->
<g id="node4" class="node">
<title>4</title>
<ellipse fill="none" stroke="black" cx="18" cy="-92.8" rx="18" ry="18"/>
<text text-anchor="middle" x="18" y="-89.1" font-family="Times,serif" font-size="14.00">4</text>
</g>
<!-- 2&#45;&#45;4 -->
<g id="edge3" class="edge">
<title>2&#45;&#45;4</title>
<path fill="none" stroke="black" d="M61.59,-152.56C52.03,-139.67 37.93,-120.67 28.38,-107.79"/>
</g>
<!-- 5 -->
<g id="node5" class="node">
<title>5</title>
<ellipse fill="none" stroke="black" cx="72" cy="-92.8" rx="18" ry="18"/>
<text text-anchor="middle" x="72" y="-89.1" font-family="Times,serif" font-size="14.00">5</text>
</g>
<!-- 2&#45;&#45;5 -->
<g id="edge4" class="edge">
<title>2&#45;&#45;5</title>
<path fill="none" stroke="black" d="M72,-149.34C72,-137.74 72,-122.51 72,-110.93"/>
</g>
<!-- t1 -->
<!-- 3&#45;&#45;t1 -->
<!-- 6 -->
<g id="node7" class="node">
<title>6</title>
<ellipse fill="none" stroke="black" cx="186" cy="-92.8" rx="18" ry="18"/>
<text text-anchor="middle" x="186" y="-89.1" font-family="Times,serif" font-size="14.00">6</text>
</g>
<!-- 3&#45;&#45;6 -->
<g id="edge6" class="edge">
<title>3&#45;&#45;6</title>
<path fill="none" stroke="black" d="M139.72,-152.9C149.91,-139.89 165.15,-120.42 175.33,-107.43"/>
</g>
<!-- 7 -->
<g id="node8" class="node">
<title>7</title>
<ellipse fill="none" stroke="black" cx="72" cy="-18" rx="18" ry="18"/>
<text text-anchor="middle" x="72" y="-14.3" font-family="Times,serif" font-size="14.00">7</text>
</g>
<!-- 5&#45;&#45;7 -->
<g id="edge7" class="edge">
<title>5&#45;&#45;7</title>
<path fill="none" stroke="black" d="M72,-74.55C72,-62.94 72,-47.71 72,-36.13"/>
</g>
</g>
</svg>
