<?xml version="1.0" encoding="UTF-8" standalone="no"?>
<!DOCTYPE svg PUBLIC "-//W3C//DTD SVG 1.1//EN"
 "http://www.w3.org/Graphics/SVG/1.1/DTD/svg11.dtd">
<!-- Generated by graphviz version 14.0.1 (20251006.0113)
 -->
<!-- Title: G Pages: 1 -->
<svg width="396pt" height="292pt"
 viewBox="0.00 0.00 396.00 292.00" xmlns="http://www.w3.org/2000/svg" xmlns:xlink="http://www.w3.org/1999/xlink">
<g id="graph0" class="graph" transform="scale(1 1) rotate(0) translate(4 288.17)">
<title>G</title>
<polygon fill="white" stroke="none" points="-4,4 -4,-288.17 392,-288.17 392,4 -4,4"/>
<g id="clust1" class="cluster">
<title>cluster_2</title>
</g>
<g id="clust2" class="cluster">
<title>cluster_1</title>
</g>
<!-- 1 -->
<g id="node1" class="node">
<title>1</title>
<ellipse fill="none" stroke="black" cx="115" cy="-250.17" rx="18" ry="18"/>
<text xml:space="preserve" text-anchor="middle" x="115" y="-245.12" font-family="Times,serif" font-size="14.00">1</text>
</g>
<!-- 2 -->
<g id="node2" class="node">
<title>2</title>
<ellipse fill="#fb6a4a" stroke="black" cx="88" cy="-178.17" rx="18" ry="18"/>
<text xml:space="preserve" text-anchor="middle" x="88" y="-173.12" font-family="Times,serif" font-size="14.00">2</text>
</g>
<!-- 1&#45;&#45;2 -->
<g id="edge1" class="edge">
<title>1&#45;&#45;2</title>
<path fill="none" stroke="black" d="M108.74,-232.93C104.38,-221.62 98.58,-206.6 94.23,-195.32"/>
</g>
<!-- 3 -->
<g id="node3" class="node">
<title>3</title>
<ellipse fill="none" stroke="black" cx="142" cy="-178.17" rx="18" ry="18"/>
<text xml:space="preserve" text-anchor="middle" x="142" y="-173.12" font-family="Times,serif" font-size="14.00">3</text>
</g>
<!-- 1&#45;&#45;3 -->
<g id="edge2" class="edge">
<title>1&#45;&#45;3</title>
<path fill="none" stroke="black" d="M121.26,-232.93C125.62,-221.62 131.42,-206.6 135.77,-195.32"/>
</g>
<!-- 4 -->
<g id="node4" class="node">
<title>4</title>
<ellipse fill="#fb6a4a" stroke="black" cx="34" cy="-106.08" rx="18" ry="18"/>
<text xml:space="preserve" text-anchor="middle" x="34" y="-101.03" font-family="Times,serif" font-size="14.00">4</text>
</g>
<!-- 2&#45;&#45;4 -->
<g id="edge3" class="edge">
<title>2&#45;&#45;4</title>
<path fill="none" stroke="black" d="M77.33,-163.32C67.86,-151.03 54.11,-133.18 44.65,-120.9"/>
</g>
<!-- 5 -->
<g id="node5" class="node">
<title>5</title>
<ellipse fill="#fb6a4a" stroke="black" cx="88" cy="-106.08" rx="18" ry="18"/>
<text xml:space="preserve" text-anchor="middle" x="88" y="-101.03" font-family="Times,serif" font-size="14.00">5</text>
</g>
<!-- 2&#45;&#45;5 -->
<g id="edge4" class="edge">
<title>2&#45;&#45;5</title>
<path fill="none" stroke="black" d="M88,-159.84C88,-148.98 88,-135.03 88,-124.21"/>
</g>
<!-- t1 -->
<!-- 3&#45;&#45;t1 -->
<!-- 6 -->
<g id="node7" class="node">
<title>6</title>
<ellipse fill="none" stroke="black" cx="196" cy="-106.08" rx="18" ry="18"/>
<text xml:space="preserve" text-anchor="middle" x="196" y="-101.03" font-family="Times,serif" font-size="14.00">6</text>
</g>
<!-- 3&#45;&#45;6 -->
<g id="edge6" class="edge">
<title>3&#45;&#45;6</title>
<path fill="none" stroke="black" d="M152.67,-163.32C162.14,-151.03 175.89,-133.18 185.35,-120.9"/>
</g>
<!-- 7 -->
<g id="node8" class="node">
<title>7</title>
<ellipse fill="#fb6a4a" stroke="black" cx="88" cy="-34" rx="18" ry="18"/>
<text xml:space="preserve" text-anchor="middle" x="88" y="-28.95" font-family="Times,serif" font-size="14.00">7</text>
</g>
<!-- 5&#45;&#45;7 -->
<g id="edge7" class="edge">
<title>5&#45;&#45;7</title>
<path fill="none" stroke="black" d="M88,-87.76C88,-76.9 88,-62.95 88,-52.12"/>
</g>
<!-- t -->
<g id="node9" class="node">
<title>t</title>
<polygon fill="none" stroke="black" points="246.38,-236.92 246.38,-263.42 263.12,-263.42 263.12,-236.92 246.38,-236.92"/>
<text xml:space="preserve" text-anchor="start" x="251.38" y="-245.12" font-family="Times,serif" font-size="14.00">1</text>
<polygon fill="#fb6a4a" stroke="none" points="263.12,-236.92 263.12,-263.42 279.88,-263.42 279.88,-236.92 263.12,-236.92"/>
<polygon fill="none" stroke="black" points="263.12,-236.92 263.12,-263.42 279.88,-263.42 279.88,-236.92 263.12,-236.92"/>
<text xml:space="preserve" text-anchor="start" x="268.12" y="-245.12" font-family="Times,serif" font-size="14.00">2</text>
<polygon fill="#fb6a4a" stroke="none" points="279.88,-236.92 279.88,-263.42 296.62,-263.42 296.62,-236.92 279.88,-236.92"/>
<polygon fill="none" stroke="black" points="279.88,-236.92 279.88,-263.42 296.62,-263.42 296.62,-236.92 279.88,-236.92"/>
<text xml:space="preserve" text-anchor="start" x="284.88" y="-245.12" font-family="Times,serif" font-size="14.00">4</text>
<polygon fill="#fb6a4a" stroke="none" points="296.62,-236.92 296.62,-263.42 313.38,-263.42 313.38,-236.92 296.62,-236.92"/>
<polygon fill="none" stroke="black" points="296.62,-236.92 296.62,-263.42 313.38,-263.42 313.38,-236.92 296.62,-236.92"/>
<text xml:space="preserve" text-anchor="start" x="301.62" y="-245.12" font-family="Times,serif" font-size="14.00">5</text>
<polygon fill="#fb6a4a" stroke="none" points="313.38,-236.92 313.38,-263.42 330.12,-263.42 330.12,-236.92 313.38,-236.92"/>
<polygon fill="none" stroke="black" points="313.38,-236.92 313.38,-263.42 330.12,-263.42 330.12,-236.92 313.38,-236.92"/>
<text xml:space="preserve" text-anchor="start" x="318.38" y="-245.12" font-family="Times,serif" font-size="14.00">7</text>
<polygon fill="none" stroke="black" points="330.12,-236.92 330.12,-263.42 346.88,-263.42 346.88,-236.92 330.12,-236.92"/>
<text xml:space="preserve" text-anchor="start" x="335.12" y="-245.12" font-family="Times,serif" font-size="14.00">3</text>
<polygon fill="none" stroke="black" points="346.88,-236.92 346.88,-263.42 363.62,-263.42 363.62,-236.92 346.88,-236.92"/>
<text xml:space="preserve" text-anchor="start" x="351.88" y="-245.12" font-family="Times,serif" font-size="14.00">6</text>
</g>
<!-- a -->
<g id="node10" class="node">
<title>a</title>
<text xml:space="preserve" text-anchor="start" x="245.75" y="-168.53" font-family="Times,serif" font-size="14.00">Start[1]=1</text>
<text xml:space="preserve" text-anchor="start" x="309.88" y="-168.53" font-family="Times,serif" font-size="14.00">End[1]=7</text>
<text xml:space="preserve" text-anchor="start" x="245.75" y="-146.03" font-family="Times,serif" font-size="14.00" fill="#fb6a4a">Start[2]=2</text>
<text xml:space="preserve" text-anchor="start" x="308" y="-147.03" font-family="Times,serif" font-size="14.00"> </text>
<text xml:space="preserve" text-anchor="start" x="311.75" y="-147.03" font-family="Times,serif" font-size="14.00" fill="#fb6a4a">End[2]=5</text>
<text xml:space="preserve" text-anchor="start" x="245.75" y="-123.53" font-family="Times,serif" font-size="14.00">Start[3]=6</text>
<text xml:space="preserve" text-anchor="start" x="309.88" y="-123.53" font-family="Times,serif" font-size="14.00">End[3]=7</text>
<text xml:space="preserve" text-anchor="start" x="245.75" y="-101.03" font-family="Times,serif" font-size="14.00">Start[4]=3</text>
<text xml:space="preserve" text-anchor="start" x="309.88" y="-101.03" font-family="Times,serif" font-size="14.00">End[4]=3</text>
<text xml:space="preserve" text-anchor="start" x="245.75" y="-78.53" font-family="Times,serif" font-size="14.00">Start[5]=4</text>
<text xml:space="preserve" text-anchor="start" x="309.88" y="-78.53" font-family="Times,serif" font-size="14.00">End[5]=5</text>
<text xml:space="preserve" text-anchor="start" x="245.75" y="-56.03" font-family="Times,serif" font-size="14.00">Start[6]=7</text>
<text xml:space="preserve" text-anchor="start" x="309.88" y="-56.03" font-family="Times,serif" font-size="14.00">End[6]=7</text>
<text xml:space="preserve" text-anchor="start" x="245.75" y="-33.53" font-family="Times,serif" font-size="14.00">Start[7]=5</text>
<text xml:space="preserve" text-anchor="start" x="309.88" y="-33.53" font-family="Times,serif" font-size="14.00">End[7]=5</text>
</g>
<!-- t&#45;&#45;a -->
</g>
</svg>
