<?xml version="1.0" encoding="UTF-8" standalone="no"?>
<!DOCTYPE svg PUBLIC "-//W3C//DTD SVG 1.1//EN"
 "http://www.w3.org/Graphics/SVG/1.1/DTD/svg11.dtd">
<!-- Generated by graphviz version 14.0.1 (20251006.0113)
 -->
<!-- Title: G Pages: 1 -->
<svg width="206pt" height="260pt"
 viewBox="0.00 0.00 206.00 260.00" xmlns="http://www.w3.org/2000/svg" xmlns:xlink="http://www.w3.org/1999/xlink">
<g id="graph0" class="graph" transform="scale(1 1) rotate(0) translate(4 256.17)">
<title>G</title>
<polygon fill="white" stroke="none" points="-4,4 -4,-256.17 202,-256.17 202,4 -4,4"/>
<!-- 1 -->
<g id="node1" class="node">
<title>1</title>
<ellipse fill="none" stroke="black" cx="99" cy="-234.17" rx="18" ry="18"/>
<text xml:space="preserve" text-anchor="middle" x="99" y="-229.12" font-family="Times,serif" font-size="14.00">1</text>
</g>
<!-- 2 -->
<g id="node2" class="node">
<title>2</title>
<ellipse fill="none" stroke="black" cx="72" cy="-162.17" rx="18" ry="18"/>
<text xml:space="preserve" text-anchor="middle" x="72" y="-157.12" font-family="Times,serif" font-size="14.00">2</text>
</g>
<!-- 1&#45;&#45;2 -->
<g id="edge1" class="edge">
<title>1&#45;&#45;2</title>
<path fill="none" stroke="black" d="M92.74,-216.93C88.38,-205.62 82.58,-190.6 78.23,-179.32"/>
</g>
<!-- 3 -->
<g id="node3" class="node">
<title>3</title>
<ellipse fill="none" stroke="black" cx="126" cy="-162.17" rx="18" ry="18"/>
<text xml:space="preserve" text-anchor="middle" x="126" y="-157.12" font-family="Times,serif" font-size="14.00">3</text>
</g>
<!-- 1&#45;&#45;3 -->
<g id="edge2" class="edge">
<title>1&#45;&#45;3</title>
<path fill="none" stroke="black" d="M105.26,-216.93C109.62,-205.62 115.42,-190.6 119.77,-179.32"/>
</g>
<!-- 4 -->
<g id="node4" class="node">
<title>4</title>
<ellipse fill="none" stroke="black" cx="18" cy="-90.08" rx="18" ry="18"/>
<text xml:space="preserve" text-anchor="middle" x="18" y="-85.03" font-family="Times,serif" font-size="14.00">4</text>
</g>
<!-- 2&#45;&#45;4 -->
<g id="edge3" class="edge">
<title>2&#45;&#45;4</title>
<path fill="none" stroke="black" d="M61.33,-147.32C51.86,-135.03 38.11,-117.18 28.65,-104.9"/>
</g>
<!-- 5 -->
<g id="node5" class="node">
<title>5</title>
<ellipse fill="none" stroke="black" cx="72" cy="-90.08" rx="18" ry="18"/>
<text xml:space="preserve" text-anchor="middle" x="72" y="-85.03" font-family="Times,serif" font-size="14.00">5</text>
</g>
<!-- 2&#45;&#45;5 -->
<g id="edge4" class="edge">
<title>2&#45;&#45;5</title>
<path fill="none" stroke="black" d="M72,-143.84C72,-132.98 72,-119.03 72,-108.21"/>
</g>
<!-- t1 -->
<!-- 3&#45;&#45;t1 -->
<!-- 6 -->
<g id="node7" class="node">
<title>6</title>
<ellipse fill="none" stroke="black" cx="180" cy="-90.08" rx="18" ry="18"/>
<text xml:space="preserve" text-anchor="middle" x="180" y="-85.03" font-family="Times,serif" font-size="14.00">6</text>
</g>
<!-- 3&#45;&#45;6 -->
<g id="edge6" class="edge">
<title>3&#45;&#45;6</title>
<path fill="none" stroke="black" d="M136.67,-147.32C146.14,-135.03 159.89,-117.18 169.35,-104.9"/>
</g>
<!-- 7 -->
<g id="node8" class="node">
<title>7</title>
<ellipse fill="none" stroke="black" cx="72" cy="-18" rx="18" ry="18"/>
<text xml:space="preserve" text-anchor="middle" x="72" y="-12.95" font-family="Times,serif" font-size="14.00">7</text>
</g>
<!-- 5&#45;&#45;7 -->
<g id="edge7" class="edge">
<title>5&#45;&#45;7</title>
<path fill="none" stroke="black" d="M72,-71.76C72,-60.9 72,-46.95 72,-36.12"/>
</g>
</g>
</svg>
