<?xml version="1.0" encoding="UTF-8" standalone="no"?>
<!DOCTYPE svg PUBLIC "-//W3C//DTD SVG 1.1//EN"
 "http://www.w3.org/Graphics/SVG/1.1/DTD/svg11.dtd">
<!-- Generated by graphviz version 14.0.1 (20251006.0113)
 -->
<!-- Title: g Pages: 1 -->
<svg width="805pt" height="366pt"
 viewBox="0.00 0.00 805.00 366.00" xmlns="http://www.w3.org/2000/svg" xmlns:xlink="http://www.w3.org/1999/xlink">
<g id="graph0" class="graph" transform="scale(1 1) rotate(0) translate(4 361.63)">
<title>g</title>
<polygon fill="white" stroke="none" points="-4,4 -4,-361.63 800.92,-361.63 800.92,4 -4,4"/>
<!-- T -->
<g id="node1" class="node">
<title>T</title>
<ellipse fill="white" stroke="black" cx="712.77" cy="-182.13" rx="84.15" ry="84.15"/>
<text xml:space="preserve" text-anchor="middle" x="712.77" y="-142.63" font-family="Times,serif" font-size="100.00">T</text>
</g>
<!-- a -->
<g id="node2" class="node">
<title>a</title>
<ellipse fill="white" stroke="black" cx="45.43" cy="-102.13" rx="45.43" ry="45.43"/>
<text xml:space="preserve" text-anchor="middle" x="45.43" y="-82.76" font-family="Times,serif" font-size="50.00">s</text>
</g>
<!-- b -->
<g id="node3" class="node">
<title>b</title>
<ellipse fill="white" stroke="black" cx="183.86" cy="-102.13" rx="18" ry="18"/>
<text xml:space="preserve" text-anchor="middle" x="183.86" y="-97.08" font-family="Times,serif" font-size="14.00">b</text>
</g>
<!-- a&#45;&gt;b -->
<g id="edge1" class="edge">
<title>a&#45;&gt;b</title>
<path fill="none" stroke="black" d="M91.1,-102.13C111.91,-102.13 136.06,-102.13 154.35,-102.13"/>
<polygon fill="black" stroke="black" points="154.19,-105.63 164.19,-102.13 154.19,-98.63 154.19,-105.63"/>
</g>
<!-- c -->
<g id="node4" class="node">
<title>c</title>
<ellipse fill="white" stroke="black" cx="294.86" cy="-102.13" rx="18" ry="18"/>
<text xml:space="preserve" text-anchor="middle" x="294.86" y="-97.08" font-family="Times,serif" font-size="14.00">c</text>
</g>
<!-- b&#45;&gt;c -->
<g id="edge2" class="edge">
<title>b&#45;&gt;c</title>
<path fill="none" stroke="black" d="M201.89,-102.13C218.83,-102.13 245.13,-102.13 265.27,-102.13"/>
<polygon fill="black" stroke="black" points="265.08,-105.63 275.08,-102.13 265.08,-98.63 265.08,-105.63"/>
</g>
<!-- d -->
<g id="node5" class="node">
<title>d</title>
<ellipse fill="white" stroke="black" cx="451.74" cy="-235.13" rx="18" ry="18"/>
<text xml:space="preserve" text-anchor="middle" x="451.74" y="-230.08" font-family="Times,serif" font-size="14.00">d</text>
</g>
<!-- c&#45;&gt;d -->
<g id="edge3" class="edge">
<title>c&#45;&gt;d</title>
<path fill="none" stroke="black" d="M309.07,-113.47C335.82,-136.44 396.61,-188.64 429.18,-216.62"/>
<polygon fill="black" stroke="black" points="426.56,-218.97 436.42,-222.83 431.12,-213.66 426.56,-218.97"/>
<text xml:space="preserve" text-anchor="middle" x="372.24" y="-173.37" font-family="Times,serif" font-size="14.00">6</text>
</g>
<!-- d1 -->
<g id="node6" class="node">
<title>d1</title>
<ellipse fill="white" stroke="black" cx="451.74" cy="-136.13" rx="20.13" ry="20.13"/>
<text xml:space="preserve" text-anchor="middle" x="451.74" y="-131.08" font-family="Times,serif" font-size="14.00">d1</text>
</g>
<!-- c&#45;&gt;d1 -->
<g id="edge8" class="edge">
<title>c&#45;&gt;d1</title>
<path fill="none" stroke="black" d="M312.59,-105.99C318.37,-107.32 324.9,-108.8 330.86,-110.13 361.41,-116.93 396.39,-124.49 420.65,-129.7"/>
<polygon fill="black" stroke="black" points="419.64,-133.06 430.15,-131.74 421.1,-126.22 419.64,-133.06"/>
<text xml:space="preserve" text-anchor="middle" x="372.24" y="-123.08" font-family="Times,serif" font-size="14.00">6</text>
</g>
<!-- d2 -->
<g id="node7" class="node">
<title>d2</title>
<ellipse fill="white" stroke="black" cx="451.74" cy="-78.13" rx="20.13" ry="20.13"/>
<text xml:space="preserve" text-anchor="middle" x="451.74" y="-73.08" font-family="Times,serif" font-size="14.00">d2</text>
</g>
<!-- c&#45;&gt;d2 -->
<g id="edge9" class="edge">
<title>c&#45;&gt;d2</title>
<path fill="none" stroke="black" d="M313.03,-99.47C338.87,-95.47 388.14,-87.83 420.2,-82.86"/>
<polygon fill="black" stroke="black" points="420.72,-86.32 430.07,-81.33 419.65,-79.41 420.72,-86.32"/>
<text xml:space="preserve" text-anchor="middle" x="372.24" y="-93.88" font-family="Times,serif" font-size="14.00">6</text>
</g>
<!-- d3 -->
<g id="node8" class="node">
<title>d3</title>
<ellipse fill="white" stroke="black" cx="451.74" cy="-20.13" rx="20.13" ry="20.13"/>
<text xml:space="preserve" text-anchor="middle" x="451.74" y="-15.08" font-family="Times,serif" font-size="14.00">d3</text>
</g>
<!-- c&#45;&gt;d3 -->
<g id="edge10" class="edge">
<title>c&#45;&gt;d3</title>
<path fill="none" stroke="black" d="M311.28,-93.97C337.52,-80.08 391.16,-51.68 423.74,-34.43"/>
<polygon fill="black" stroke="black" points="424.97,-37.73 432.17,-29.96 421.7,-31.55 424.97,-37.73"/>
<text xml:space="preserve" text-anchor="middle" x="372.24" y="-66.22" font-family="Times,serif" font-size="14.00">6</text>
</g>
<!-- d&#45;&gt;T -->
<g id="edge4" class="edge">
<title>d&#45;&gt;T</title>
<path fill="none" stroke="black" stroke-dasharray="5,2" d="M454.18,-253.11C457.68,-283.35 469.52,-341.13 508.88,-341.13 508.88,-341.13 508.88,-341.13 591.63,-341.13 632.11,-341.13 660.68,-307.92 679.78,-271.85"/>
<polygon fill="black" stroke="black" points="682.87,-273.49 684.23,-262.98 676.62,-270.35 682.87,-273.49"/>
<text xml:space="preserve" text-anchor="middle" x="550.25" y="-344.33" font-family="Times,serif" font-size="14.00">0</text>
</g>
<!-- d&#45;&gt;T -->
<g id="edge5" class="edge">
<title>d&#45;&gt;T</title>
<path fill="none" stroke="black" stroke-dasharray="5,2" d="M460.94,-251.03C470.25,-266.64 487.03,-288.13 508.88,-288.13 508.88,-288.13 508.88,-288.13 591.63,-288.13 616.11,-288.13 637.96,-275.6 656.09,-259.16"/>
<polygon fill="black" stroke="black" points="658.32,-261.87 663.07,-252.41 653.45,-256.84 658.32,-261.87"/>
<text xml:space="preserve" text-anchor="middle" x="550.25" y="-291.33" font-family="Times,serif" font-size="14.00">1</text>
</g>
<!-- d&#45;&gt;T -->
<g id="edge6" class="edge">
<title>d&#45;&gt;T</title>
<path fill="none" stroke="black" stroke-dasharray="5,2" d="M469.94,-235.13C481.05,-235.13 495.82,-235.13 508.88,-235.13 508.88,-235.13 508.88,-235.13 591.63,-235.13 604.23,-235.13 617,-232.66 629.27,-228.78"/>
<polygon fill="black" stroke="black" points="630.21,-232.16 638.48,-225.54 627.88,-225.56 630.21,-232.16"/>
<text xml:space="preserve" text-anchor="middle" x="550.25" y="-238.33" font-family="Times,serif" font-size="14.00">2</text>
</g>
<!-- d&#45;&gt;T -->
<g id="edge7" class="edge">
<title>d&#45;&gt;T</title>
<path fill="none" stroke="black" stroke-dasharray="5,2" d="M460.94,-219.23C470.25,-203.62 487.03,-182.13 508.88,-182.13 508.88,-182.13 508.88,-182.13 591.63,-182.13 599.89,-182.13 608.48,-182.13 617.09,-182.13"/>
<polygon fill="black" stroke="black" points="616.88,-185.63 626.88,-182.13 616.88,-178.63 616.88,-185.63"/>
<text xml:space="preserve" text-anchor="middle" x="550.25" y="-185.33" font-family="Times,serif" font-size="14.00">3</text>
</g>
<!-- d1&#45;&gt;T -->
<g id="edge11" class="edge">
<title>d1&#45;&gt;T</title>
<path fill="none" stroke="black" d="M471.9,-132.55C482.71,-130.83 496.5,-129.13 508.88,-129.13 508.88,-129.13 508.88,-129.13 591.63,-129.13 604.23,-129.13 617,-131.6 629.27,-135.48"/>
<polygon fill="black" stroke="black" points="627.88,-138.71 638.48,-138.72 630.21,-132.1 627.88,-138.71"/>
<text xml:space="preserve" text-anchor="middle" x="550.25" y="-132.33" font-family="Times,serif" font-size="14.00">6</text>
</g>
<!-- d2&#45;&gt;T -->
<g id="edge12" class="edge">
<title>d2&#45;&gt;T</title>
<path fill="none" stroke="black" d="M472.22,-77.1C483.02,-76.61 496.69,-76.13 508.88,-76.13 508.88,-76.13 508.88,-76.13 591.63,-76.13 616.11,-76.13 637.96,-88.66 656.09,-105.11"/>
<polygon fill="black" stroke="black" points="653.45,-107.42 663.07,-111.86 658.32,-102.39 653.45,-107.42"/>
<text xml:space="preserve" text-anchor="middle" x="550.25" y="-79.33" font-family="Times,serif" font-size="14.00">6</text>
</g>
<!-- d3&#45;&gt;T -->
<g id="edge13" class="edge">
<title>d3&#45;&gt;T</title>
<path fill="none" stroke="black" d="M472.22,-21.17C483.02,-21.65 496.69,-22.13 508.88,-22.13 508.88,-22.13 508.88,-22.13 591.63,-22.13 632.6,-22.13 661.32,-56.1 680.39,-92.74"/>
<polygon fill="black" stroke="black" points="677.02,-93.83 684.6,-101.24 683.3,-90.73 677.02,-93.83"/>
<text xml:space="preserve" text-anchor="middle" x="550.25" y="-25.33" font-family="Times,serif" font-size="14.00">6</text>
</g>
</g>
</svg>
