<?xml version="1.0" encoding="UTF-8" standalone="no"?>
<!DOCTYPE svg PUBLIC "-//W3C//DTD SVG 1.1//EN"
 "http://www.w3.org/Graphics/SVG/1.1/DTD/svg11.dtd">
<!-- Generated by graphviz version 2.43.0 (0)
 -->
<!-- Title: g Pages: 1 -->
<svg width="813pt" height="361pt"
 viewBox="0.00 0.00 813.47 360.75" xmlns="http://www.w3.org/2000/svg" xmlns:xlink="http://www.w3.org/1999/xlink">
<g id="graph0" class="graph" transform="scale(1 1) rotate(0) translate(4 356.75)">
<title>g</title>
<polygon fill="white" stroke="transparent" points="-4,4 -4,-356.75 809.47,-356.75 809.47,4 -4,4"/>
<!-- T -->
<g id="node1" class="node">
<title>T</title>
<ellipse fill="white" stroke="black" cx="722.03" cy="-184.75" rx="83.38" ry="83.38"/>
<text text-anchor="middle" x="722.03" y="-159.75" font-family="Times,serif" font-size="100.00">T</text>
</g>
<!-- a -->
<g id="node2" class="node">
<title>a</title>
<ellipse fill="white" stroke="black" cx="44.55" cy="-110.75" rx="44.6" ry="44.6"/>
<text text-anchor="middle" x="44.55" y="-98.25" font-family="Times,serif" font-size="50.00">s</text>
</g>
<!-- b -->
<g id="node3" class="node">
<title>b</title>
<ellipse fill="white" stroke="black" cx="182.1" cy="-110.75" rx="18" ry="18"/>
<text text-anchor="middle" x="182.1" y="-107.05" font-family="Times,serif" font-size="14.00">b</text>
</g>
<!-- a&#45;&gt;b -->
<g id="edge1" class="edge">
<title>a&#45;&gt;b</title>
<path fill="none" stroke="black" d="M89.18,-110.75C110.4,-110.75 135.25,-110.75 153.76,-110.75"/>
<polygon fill="black" stroke="black" points="153.85,-114.25 163.85,-110.75 153.85,-107.25 153.85,-114.25"/>
</g>
<!-- c -->
<g id="node4" class="node">
<title>c</title>
<ellipse fill="white" stroke="black" cx="293.1" cy="-110.75" rx="18" ry="18"/>
<text text-anchor="middle" x="293.1" y="-107.05" font-family="Times,serif" font-size="14.00">c</text>
</g>
<!-- b&#45;&gt;c -->
<g id="edge2" class="edge">
<title>b&#45;&gt;c</title>
<path fill="none" stroke="black" d="M200.13,-110.75C217.38,-110.75 244.35,-110.75 264.63,-110.75"/>
<polygon fill="black" stroke="black" points="264.82,-114.25 274.82,-110.75 264.82,-107.25 264.82,-114.25"/>
</g>
<!-- d -->
<g id="node5" class="node">
<title>d</title>
<ellipse fill="white" stroke="black" cx="455.84" cy="-235.75" rx="18" ry="18"/>
<text text-anchor="middle" x="455.84" y="-232.05" font-family="Times,serif" font-size="14.00">d</text>
</g>
<!-- c&#45;&gt;d -->
<g id="edge3" class="edge">
<title>c&#45;&gt;d</title>
<path fill="none" stroke="black" d="M307.8,-121.41C335.68,-143.08 399.2,-192.48 432.9,-218.68"/>
<polygon fill="black" stroke="black" points="431.13,-221.74 441.17,-225.12 435.43,-216.22 431.13,-221.74"/>
<text text-anchor="middle" x="372.1" y="-177.55" font-family="Times,serif" font-size="14.00">6</text>
</g>
<!-- d1 -->
<g id="node6" class="node">
<title>d1</title>
<ellipse fill="white" stroke="black" cx="455.84" cy="-148.75" rx="23" ry="23"/>
<text text-anchor="middle" x="455.84" y="-145.05" font-family="Times,serif" font-size="14.00">d1</text>
</g>
<!-- c&#45;&gt;d1 -->
<g id="edge8" class="edge">
<title>c&#45;&gt;d1</title>
<path fill="none" stroke="black" d="M310.81,-115.14C316.59,-116.63 323.12,-118.29 329.1,-119.75 361.24,-127.58 398.13,-136.03 423.61,-141.77"/>
<polygon fill="black" stroke="black" points="422.92,-145.21 433.45,-143.98 424.46,-138.38 422.92,-145.21"/>
<text text-anchor="middle" x="372.1" y="-135.55" font-family="Times,serif" font-size="14.00">6</text>
</g>
<!-- d2 -->
<g id="node7" class="node">
<title>d2</title>
<ellipse fill="white" stroke="black" cx="455.84" cy="-85.75" rx="23" ry="23"/>
<text text-anchor="middle" x="455.84" y="-82.05" font-family="Times,serif" font-size="14.00">d2</text>
</g>
<!-- c&#45;&gt;d2 -->
<g id="edge9" class="edge">
<title>c&#45;&gt;d2</title>
<path fill="none" stroke="black" d="M310.99,-108.12C337.47,-104 389.18,-95.96 422.85,-90.72"/>
<polygon fill="black" stroke="black" points="423.75,-94.13 433.09,-89.13 422.67,-87.21 423.75,-94.13"/>
<text text-anchor="middle" x="372.1" y="-103.55" font-family="Times,serif" font-size="14.00">6</text>
</g>
<!-- d3 -->
<g id="node8" class="node">
<title>d3</title>
<ellipse fill="white" stroke="black" cx="455.84" cy="-22.75" rx="23" ry="23"/>
<text text-anchor="middle" x="455.84" y="-19.05" font-family="Times,serif" font-size="14.00">d3</text>
</g>
<!-- c&#45;&gt;d3 -->
<g id="edge10" class="edge">
<title>c&#45;&gt;d3</title>
<path fill="none" stroke="black" d="M309.22,-102.47C336.01,-87.8 392.2,-57.04 426.41,-38.31"/>
<polygon fill="black" stroke="black" points="428.35,-41.24 435.44,-33.37 424.99,-35.1 428.35,-41.24"/>
<text text-anchor="middle" x="372.1" y="-74.55" font-family="Times,serif" font-size="14.00">6</text>
</g>
<!-- d&#45;&gt;T -->
<g id="edge4" class="edge">
<title>d&#45;&gt;T</title>
<path fill="none" stroke="black" stroke-dasharray="5,2" d="M458.94,-253.52C463.5,-282.74 477.17,-337.75 515.59,-337.75 515.59,-337.75 515.59,-337.75 601.59,-337.75 640.57,-337.75 668.71,-306.52 687.84,-272.27"/>
<polygon fill="black" stroke="black" points="691.15,-273.51 692.76,-263.04 684.97,-270.22 691.15,-273.51"/>
<text text-anchor="middle" x="558.59" y="-341.55" font-family="Times,serif" font-size="14.00">0</text>
</g>
<!-- d&#45;&gt;T -->
<g id="edge5" class="edge">
<title>d&#45;&gt;T</title>
<path fill="none" stroke="black" stroke-dasharray="5,2" d="M465.75,-251.05C475.78,-266.07 493.58,-286.75 515.59,-286.75 515.59,-286.75 515.59,-286.75 601.59,-286.75 625.45,-286.75 646.95,-274.83 664.92,-259.15"/>
<polygon fill="black" stroke="black" points="667.45,-261.58 672.41,-252.22 662.69,-256.44 667.45,-261.58"/>
<text text-anchor="middle" x="558.59" y="-290.55" font-family="Times,serif" font-size="14.00">1</text>
</g>
<!-- d&#45;&gt;T -->
<g id="edge6" class="edge">
<title>d&#45;&gt;T</title>
<path fill="none" stroke="black" stroke-dasharray="5,2" d="M474.07,-235.75C485.78,-235.75 501.62,-235.75 515.59,-235.75 515.59,-235.75 515.59,-235.75 601.59,-235.75 614.44,-235.75 627.48,-233.22 640,-229.29"/>
<polygon fill="black" stroke="black" points="641.14,-232.6 649.46,-226.04 638.86,-225.98 641.14,-232.6"/>
<text text-anchor="middle" x="558.59" y="-239.55" font-family="Times,serif" font-size="14.00">2</text>
</g>
<!-- d&#45;&gt;T -->
<g id="edge7" class="edge">
<title>d&#45;&gt;T</title>
<path fill="none" stroke="black" stroke-dasharray="5,2" d="M465.75,-220.45C475.78,-205.42 493.58,-184.75 515.59,-184.75 515.59,-184.75 515.59,-184.75 601.59,-184.75 610.25,-184.75 619.27,-184.75 628.29,-184.75"/>
<polygon fill="black" stroke="black" points="628.47,-188.25 638.47,-184.75 628.47,-181.25 628.47,-188.25"/>
<text text-anchor="middle" x="558.59" y="-188.55" font-family="Times,serif" font-size="14.00">3</text>
</g>
<!-- d1&#45;&gt;T -->
<g id="edge11" class="edge">
<title>d1&#45;&gt;T</title>
<path fill="none" stroke="black" d="M477.45,-140.81C488.58,-137.21 502.64,-133.75 515.59,-133.75 515.59,-133.75 515.59,-133.75 601.59,-133.75 614.44,-133.75 627.48,-136.27 640,-140.2"/>
<polygon fill="black" stroke="black" points="638.86,-143.51 649.46,-143.46 641.14,-136.89 638.86,-143.51"/>
<text text-anchor="middle" x="558.59" y="-137.55" font-family="Times,serif" font-size="14.00">6</text>
</g>
<!-- d2&#45;&gt;T -->
<g id="edge12" class="edge">
<title>d2&#45;&gt;T</title>
<path fill="none" stroke="black" d="M478.59,-84.11C489.66,-83.41 503.34,-82.75 515.59,-82.75 515.59,-82.75 515.59,-82.75 601.59,-82.75 625.45,-82.75 646.95,-94.66 664.92,-110.35"/>
<polygon fill="black" stroke="black" points="662.69,-113.05 672.41,-117.28 667.45,-107.92 662.69,-113.05"/>
<text text-anchor="middle" x="558.59" y="-86.55" font-family="Times,serif" font-size="14.00">6</text>
</g>
<!-- d3&#45;&gt;T -->
<g id="edge13" class="edge">
<title>d3&#45;&gt;T</title>
<path fill="none" stroke="black" d="M478.55,-26.03C489.61,-27.43 503.29,-28.75 515.59,-28.75 515.59,-28.75 515.59,-28.75 601.59,-28.75 641.53,-28.75 669.92,-61.38 688.97,-96.79"/>
<polygon fill="black" stroke="black" points="685.93,-98.54 693.61,-105.83 692.16,-95.34 685.93,-98.54"/>
<text text-anchor="middle" x="558.59" y="-32.55" font-family="Times,serif" font-size="14.00">6</text>
</g>
</g>
</svg>
