<?xml version="1.0" encoding="UTF-8" standalone="no"?>
<!DOCTYPE svg PUBLIC "-//W3C//DTD SVG 1.1//EN"
 "http://www.w3.org/Graphics/SVG/1.1/DTD/svg11.dtd">
<!-- Generated by graphviz version 2.43.0 (0)
 -->
<!-- Title: g Pages: 1 -->
<svg width="110pt" height="260pt"
 viewBox="0.00 0.00 110.14 260.00" xmlns="http://www.w3.org/2000/svg" xmlns:xlink="http://www.w3.org/1999/xlink">
<g id="graph0" class="graph" transform="scale(1 1) rotate(0) translate(4 256)">
<title>g</title>
<polygon fill="white" stroke="transparent" points="-4,4 -4,-256 106.14,-256 106.14,4 -4,4"/>
<!-- a -->
<g id="node1" class="node">
<title>a</title>
<ellipse fill="#beaed4" stroke="black" cx="34.14" cy="-234" rx="18" ry="18"/>
<text text-anchor="middle" x="34.14" y="-230.3" font-family="Times,serif" font-size="14.00">5</text>
</g>
<!-- b -->
<g id="node2" class="node">
<title>b</title>
<ellipse fill="#beaed4" stroke="black" cx="84.14" cy="-162" rx="18" ry="18"/>
<text text-anchor="middle" x="84.14" y="-158.3" font-family="Times,serif" font-size="14.00">&#45;6</text>
</g>
<!-- a&#45;&gt;b -->
<g id="edge1" class="edge">
<title>a&#45;&gt;b</title>
<path fill="none" stroke="black" d="M44.26,-218.83C51.1,-209.25 60.29,-196.39 68.12,-185.43"/>
<polygon fill="black" stroke="black" points="71.07,-187.32 74.04,-177.14 65.37,-183.25 71.07,-187.32"/>
</g>
<!-- c -->
<g id="node3" class="node">
<title>c</title>
<ellipse fill="#beaed4" stroke="black" cx="34.14" cy="-90" rx="18" ry="18"/>
<text text-anchor="middle" x="34.14" y="-86.3" font-family="Times,serif" font-size="14.00">&#45;1</text>
</g>
<!-- a&#45;&gt;c -->
<g id="edge5" class="edge">
<title>a&#45;&gt;c</title>
<path fill="none" stroke="black" d="M23.22,-219.09C15.95,-208.9 7.04,-194.4 3.14,-180 -1.05,-164.56 -1.05,-159.44 3.14,-144 6.07,-133.2 11.81,-122.34 17.56,-113.29"/>
<polygon fill="black" stroke="black" points="20.52,-115.16 23.22,-104.91 14.72,-111.24 20.52,-115.16"/>
</g>
<!-- b&#45;&gt;c -->
<g id="edge2" class="edge">
<title>b&#45;&gt;c</title>
<path fill="none" stroke="black" d="M74.02,-146.83C67.18,-137.25 57.99,-124.39 50.16,-113.43"/>
<polygon fill="black" stroke="black" points="52.9,-111.25 44.24,-105.14 47.21,-115.32 52.9,-111.25"/>
</g>
<!-- f -->
<g id="node5" class="node">
<title>f</title>
<ellipse fill="#beaed4" stroke="black" cx="57.14" cy="-18" rx="18" ry="18"/>
<text text-anchor="middle" x="57.14" y="-14.3" font-family="Times,serif" font-size="14.00">&#45;3</text>
</g>
<!-- b&#45;&gt;f -->
<g id="edge3" class="edge">
<title>b&#45;&gt;f</title>
<path fill="none" stroke="black" d="M80.94,-144.15C76.31,-119.81 67.7,-74.57 62.21,-45.67"/>
<polygon fill="black" stroke="black" points="65.64,-45 60.34,-35.82 58.77,-46.3 65.64,-45"/>
</g>
<!-- c&#45;&gt;f -->
<g id="edge4" class="edge">
<title>c&#45;&gt;f</title>
<path fill="none" stroke="black" d="M39.47,-72.76C42.16,-64.58 45.49,-54.45 48.53,-45.2"/>
<polygon fill="black" stroke="black" points="51.88,-46.23 51.67,-35.63 45.23,-44.04 51.88,-46.23"/>
</g>
<!-- e -->
<g id="node4" class="node">
<title>e</title>
<ellipse fill="white" stroke="black" cx="30.14" cy="-162" rx="18" ry="18"/>
<text text-anchor="middle" x="30.14" y="-158.3" font-family="Times,serif" font-size="14.00">7</text>
</g>
<!-- e&#45;&gt;c -->
<g id="edge6" class="edge">
<title>e&#45;&gt;c</title>
<path fill="none" stroke="black" d="M31.13,-143.7C31.57,-135.98 32.1,-126.71 32.59,-118.11"/>
<polygon fill="black" stroke="black" points="36.08,-118.29 33.16,-108.1 29.1,-117.89 36.08,-118.29"/>
</g>
</g>
</svg>
