<?xml version="1.0" encoding="UTF-8" standalone="no"?>
<!DOCTYPE svg PUBLIC "-//W3C//DTD SVG 1.1//EN"
 "http://www.w3.org/Graphics/SVG/1.1/DTD/svg11.dtd">
<!-- Generated by graphviz version 14.0.1 (20251006.0113)
 -->
<!-- Title: g Pages: 1 -->
<svg width="110pt" height="260pt"
 viewBox="0.00 0.00 110.00 260.00" xmlns="http://www.w3.org/2000/svg" xmlns:xlink="http://www.w3.org/1999/xlink">
<g id="graph0" class="graph" transform="scale(1 1) rotate(0) translate(4 256)">
<title>g</title>
<polygon fill="white" stroke="none" points="-4,4 -4,-256 106.14,-256 106.14,4 -4,4"/>
<!-- a -->
<g id="node1" class="node">
<title>a</title>
<ellipse fill="#beaed4" stroke="black" cx="34.14" cy="-234" rx="18" ry="18"/>
<text xml:space="preserve" text-anchor="middle" x="34.14" y="-228.95" font-family="Times,serif" font-size="14.00">5</text>
</g>
<!-- b -->
<g id="node2" class="node">
<title>b</title>
<ellipse fill="#beaed4" stroke="black" cx="84.14" cy="-162" rx="18" ry="18"/>
<text xml:space="preserve" text-anchor="middle" x="84.14" y="-156.95" font-family="Times,serif" font-size="14.00">&#45;6</text>
</g>
<!-- a&#45;&gt;b -->
<g id="edge1" class="edge">
<title>a&#45;&gt;b</title>
<path fill="none" stroke="black" d="M44.26,-218.83C50.9,-209.54 59.74,-197.15 67.42,-186.41"/>
<polygon fill="black" stroke="black" points="70.19,-188.55 73.16,-178.38 64.5,-184.48 70.19,-188.55"/>
</g>
<!-- c -->
<g id="node3" class="node">
<title>c</title>
<ellipse fill="#beaed4" stroke="black" cx="34.14" cy="-90" rx="18" ry="18"/>
<text xml:space="preserve" text-anchor="middle" x="34.14" y="-84.95" font-family="Times,serif" font-size="14.00">&#45;1</text>
</g>
<!-- a&#45;&gt;c -->
<g id="edge5" class="edge">
<title>a&#45;&gt;c</title>
<path fill="none" stroke="black" d="M23.22,-219.09C15.95,-208.9 7.04,-194.4 3.14,-180 -1.05,-164.56 -1.05,-159.44 3.14,-144 5.94,-133.65 11.33,-123.24 16.84,-114.43"/>
<polygon fill="black" stroke="black" points="19.72,-116.43 22.37,-106.17 13.9,-112.53 19.72,-116.43"/>
</g>
<!-- b&#45;&gt;c -->
<g id="edge2" class="edge">
<title>b&#45;&gt;c</title>
<path fill="none" stroke="black" d="M74.02,-146.83C67.38,-137.54 58.53,-125.15 50.86,-114.41"/>
<polygon fill="black" stroke="black" points="53.78,-112.48 45.12,-106.38 48.09,-116.55 53.78,-112.48"/>
</g>
<!-- f -->
<g id="node5" class="node">
<title>f</title>
<ellipse fill="#beaed4" stroke="black" cx="57.14" cy="-18" rx="18" ry="18"/>
<text xml:space="preserve" text-anchor="middle" x="57.14" y="-12.95" font-family="Times,serif" font-size="14.00">&#45;3</text>
</g>
<!-- b&#45;&gt;f -->
<g id="edge3" class="edge">
<title>b&#45;&gt;f</title>
<path fill="none" stroke="black" d="M80.88,-143.87C76.32,-119.88 67.98,-75.99 62.49,-47.16"/>
<polygon fill="black" stroke="black" points="66,-46.85 60.69,-37.68 59.12,-48.15 66,-46.85"/>
</g>
<!-- c&#45;&gt;f -->
<g id="edge4" class="edge">
<title>c&#45;&gt;f</title>
<path fill="none" stroke="black" d="M39.59,-72.41C42.17,-64.57 45.31,-54.99 48.22,-46.13"/>
<polygon fill="black" stroke="black" points="51.46,-47.5 51.25,-36.91 44.81,-45.32 51.46,-47.5"/>
</g>
<!-- e -->
<g id="node4" class="node">
<title>e</title>
<ellipse fill="white" stroke="black" cx="30.14" cy="-162" rx="18" ry="18"/>
<text xml:space="preserve" text-anchor="middle" x="30.14" y="-156.95" font-family="Times,serif" font-size="14.00">7</text>
</g>
<!-- e&#45;&gt;c -->
<g id="edge6" class="edge">
<title>e&#45;&gt;c</title>
<path fill="none" stroke="black" d="M31.13,-143.7C31.54,-136.41 32.04,-127.73 32.51,-119.54"/>
<polygon fill="black" stroke="black" points="36,-119.8 33.07,-109.62 29.01,-119.4 36,-119.8"/>
</g>
</g>
</svg>
