<?xml version="1.0" encoding="UTF-8" standalone="no"?>
<!DOCTYPE svg PUBLIC "-//W3C//DTD SVG 1.1//EN"
 "http://www.w3.org/Graphics/SVG/1.1/DTD/svg11.dtd">
<!-- Generated by graphviz version 2.43.0 (0)
 -->
<!-- Title: g Pages: 1 -->
<svg width="163pt" height="500pt"
 viewBox="0.00 0.00 162.96 500.00" xmlns="http://www.w3.org/2000/svg" xmlns:xlink="http://www.w3.org/1999/xlink">
<g id="graph0" class="graph" transform="scale(1 1) rotate(0) translate(4 496)">
<title>g</title>
<polygon fill="white" stroke="transparent" points="-4,4 -4,-496 158.96,-496 158.96,4 -4,4"/>
<!-- s -->
<g id="node1" class="node">
<title>s</title>
<ellipse fill="white" stroke="black" cx="117.96" cy="-474" rx="18" ry="18"/>
<text text-anchor="middle" x="117.96" y="-470.3" font-family="Times,serif" font-size="14.00">S</text>
</g>
<!-- a -->
<g id="node3" class="node">
<title>a</title>
<ellipse fill="white" stroke="black" cx="88.96" cy="-387" rx="18" ry="18"/>
<text text-anchor="middle" x="88.96" y="-383.3" font-family="Times,serif" font-size="14.00">5</text>
</g>
<!-- s&#45;&gt;a -->
<g id="edge7" class="edge">
<title>s&#45;&gt;a</title>
<path fill="none" stroke="Blue" stroke-dasharray="1,5" d="M111.24,-457.08C108.83,-451.14 106.16,-444.3 103.96,-438 101.33,-430.47 98.74,-422.21 96.46,-414.61"/>
<polygon fill="Blue" stroke="Blue" points="99.76,-413.4 93.59,-404.79 93.04,-415.37 99.76,-413.4"/>
<text text-anchor="middle" x="108.96" y="-426.8" font-family="Times,serif" font-size="14.00">5</text>
</g>
<!-- e -->
<g id="node6" class="node">
<title>e</title>
<ellipse fill="white" stroke="black" cx="136.96" cy="-333" rx="18" ry="18"/>
<text text-anchor="middle" x="136.96" y="-329.3" font-family="Times,serif" font-size="14.00">7</text>
</g>
<!-- s&#45;&gt;e -->
<g id="edge8" class="edge">
<title>s&#45;&gt;e</title>
<path fill="none" stroke="Blue" d="M120.29,-455.96C123.52,-432.3 129.41,-389.26 133.25,-361.15"/>
<polygon fill="Blue" stroke="Blue" points="136.72,-361.57 134.61,-351.18 129.79,-360.62 136.72,-361.57"/>
<text text-anchor="middle" x="128.96" y="-426.8" font-family="Times,serif" font-size="14.00">7</text>
</g>
<!-- t -->
<g id="node2" class="node">
<title>t</title>
<ellipse fill="white" stroke="black" cx="30.96" cy="-18" rx="18" ry="18"/>
<text text-anchor="middle" x="30.96" y="-14.3" font-family="Times,serif" font-size="14.00">T</text>
</g>
<!-- b -->
<g id="node4" class="node">
<title>b</title>
<ellipse fill="white" stroke="black" cx="31.96" cy="-279" rx="18" ry="18"/>
<text text-anchor="middle" x="31.96" y="-275.3" font-family="Times,serif" font-size="14.00">&#45;6</text>
</g>
<!-- a&#45;&gt;b -->
<g id="edge1" class="edge">
<title>a&#45;&gt;b</title>
<path fill="none" stroke="red" d="M77.59,-372.94C72.41,-366.59 66.45,-358.69 61.96,-351 53.6,-336.68 46.3,-319.59 41,-305.76"/>
<polygon fill="red" stroke="red" points="44.27,-304.51 37.5,-296.36 37.71,-306.95 44.27,-304.51"/>
<text text-anchor="middle" x="68.46" y="-329.3" font-family="Times,serif" font-size="14.00">∞</text>
</g>
<!-- c -->
<g id="node5" class="node">
<title>c</title>
<ellipse fill="white" stroke="black" cx="88.96" cy="-192" rx="18" ry="18"/>
<text text-anchor="middle" x="88.96" y="-188.3" font-family="Times,serif" font-size="14.00">&#45;1</text>
</g>
<!-- a&#45;&gt;c -->
<g id="edge5" class="edge">
<title>a&#45;&gt;c</title>
<path fill="none" stroke="red" d="M88.96,-368.87C88.96,-335.32 88.96,-260.71 88.96,-220.29"/>
<polygon fill="red" stroke="red" points="92.46,-220.09 88.96,-210.09 85.46,-220.09 92.46,-220.09"/>
<text text-anchor="middle" x="95.46" y="-275.3" font-family="Times,serif" font-size="14.00">∞</text>
</g>
<!-- b&#45;&gt;t -->
<g id="edge9" class="edge">
<title>b&#45;&gt;t</title>
<path fill="none" stroke="Blue" d="M25.94,-261.82C14.47,-228.81 -8.35,-151.35 3.96,-87 6.82,-72.04 12.93,-56.17 18.61,-43.53"/>
<polygon fill="Blue" stroke="Blue" points="21.93,-44.7 23.01,-34.16 15.59,-41.73 21.93,-44.7"/>
<text text-anchor="middle" x="6.96" y="-144.8" font-family="Times,serif" font-size="14.00">6</text>
</g>
<!-- b&#45;&gt;c -->
<g id="edge2" class="edge">
<title>b&#45;&gt;c</title>
<path fill="none" stroke="red" d="M40.44,-262.84C46.22,-252.77 54.2,-239.37 61.96,-228 65.02,-223.52 68.44,-218.84 71.8,-214.42"/>
<polygon fill="red" stroke="red" points="74.7,-216.4 78.07,-206.36 69.17,-212.11 74.7,-216.4"/>
<text text-anchor="middle" x="68.46" y="-231.8" font-family="Times,serif" font-size="14.00">∞</text>
</g>
<!-- f -->
<g id="node7" class="node">
<title>f</title>
<ellipse fill="white" stroke="black" cx="30.96" cy="-105" rx="18" ry="18"/>
<text text-anchor="middle" x="30.96" y="-101.3" font-family="Times,serif" font-size="14.00">&#45;3</text>
</g>
<!-- b&#45;&gt;f -->
<g id="edge3" class="edge">
<title>b&#45;&gt;f</title>
<path fill="none" stroke="red" d="M31.86,-260.88C31.69,-231 31.33,-169.11 31.12,-133.27"/>
<polygon fill="red" stroke="red" points="34.62,-133.03 31.06,-123.05 27.62,-133.07 34.62,-133.03"/>
<text text-anchor="middle" x="38.46" y="-188.3" font-family="Times,serif" font-size="14.00">∞</text>
</g>
<!-- c&#45;&gt;t -->
<g id="edge10" class="edge">
<title>c&#45;&gt;t</title>
<path fill="none" stroke="Blue" stroke-dasharray="1,5" d="M84.43,-174.29C81.75,-164.56 78.25,-152.06 74.96,-141 67.79,-116.88 66.35,-110.72 57.96,-87 52.7,-72.14 50.77,-68.65 44.96,-54 43.73,-50.9 42.43,-47.64 41.14,-44.42"/>
<polygon fill="Blue" stroke="Blue" points="44.35,-43.01 37.39,-35.02 37.85,-45.61 44.35,-43.01"/>
<text text-anchor="middle" x="74.96" y="-101.3" font-family="Times,serif" font-size="14.00">1</text>
</g>
<!-- c&#45;&gt;f -->
<g id="edge4" class="edge">
<title>c&#45;&gt;f</title>
<path fill="none" stroke="red" d="M78.12,-177.61C73.05,-171.19 67.03,-163.32 61.96,-156 56.15,-147.62 50.15,-138.16 45,-129.75"/>
<polygon fill="red" stroke="red" points="47.96,-127.88 39.79,-121.13 41.97,-131.5 47.96,-127.88"/>
<text text-anchor="middle" x="68.46" y="-144.8" font-family="Times,serif" font-size="14.00">∞</text>
</g>
<!-- e&#45;&gt;c -->
<g id="edge6" class="edge">
<title>e&#45;&gt;c</title>
<path fill="none" stroke="red" d="M131.98,-315.68C125.62,-295.1 114.11,-258.71 102.96,-228 101.82,-224.86 100.58,-221.59 99.32,-218.35"/>
<polygon fill="red" stroke="red" points="102.53,-216.95 95.59,-208.95 96.03,-219.53 102.53,-216.95"/>
<text text-anchor="middle" x="131.46" y="-275.3" font-family="Times,serif" font-size="14.00">∞</text>
</g>
<!-- f&#45;&gt;t -->
<g id="edge11" class="edge">
<title>f&#45;&gt;t</title>
<path fill="none" stroke="Blue" stroke-dasharray="1,5" d="M30.96,-86.8C30.96,-75.16 30.96,-59.55 30.96,-46.24"/>
<polygon fill="Blue" stroke="Blue" points="34.46,-46.18 30.96,-36.18 27.46,-46.18 34.46,-46.18"/>
<text text-anchor="middle" x="35.96" y="-57.8" font-family="Times,serif" font-size="14.00">3</text>
</g>
</g>
</svg>
