<?xml version="1.0" encoding="UTF-8" standalone="no"?>
<!DOCTYPE svg PUBLIC "-//W3C//DTD SVG 1.1//EN"
 "http://www.w3.org/Graphics/SVG/1.1/DTD/svg11.dtd">
<!-- Generated by graphviz version 14.0.1 (20251006.0113)
 -->
<!-- Title: g Pages: 1 -->
<svg width="98pt" height="260pt"
 viewBox="0.00 0.00 98.00 260.00" xmlns="http://www.w3.org/2000/svg" xmlns:xlink="http://www.w3.org/1999/xlink">
<g id="graph0" class="graph" transform="scale(1 1) rotate(0) translate(4 256)">
<title>g</title>
<polygon fill="white" stroke="none" points="-4,4 -4,-256 94,-256 94,4 -4,4"/>
<!-- a -->
<g id="node1" class="node">
<title>a</title>
<ellipse fill="white" stroke="black" cx="72" cy="-234" rx="18" ry="18"/>
<text xml:space="preserve" text-anchor="middle" x="72" y="-228.95" font-family="Times,serif" font-size="14.00">5</text>
</g>
<!-- b -->
<g id="node2" class="node">
<title>b</title>
<ellipse fill="white" stroke="black" cx="72" cy="-162" rx="18" ry="18"/>
<text xml:space="preserve" text-anchor="middle" x="72" y="-156.95" font-family="Times,serif" font-size="14.00">&#45;6</text>
</g>
<!-- a&#45;&gt;b -->
<g id="edge1" class="edge">
<title>a&#45;&gt;b</title>
<path fill="none" stroke="black" d="M72,-215.7C72,-208.41 72,-199.73 72,-191.54"/>
<polygon fill="black" stroke="black" points="75.5,-191.62 72,-181.62 68.5,-191.62 75.5,-191.62"/>
</g>
<!-- c -->
<g id="node3" class="node">
<title>c</title>
<ellipse fill="white" stroke="black" cx="22" cy="-90" rx="18" ry="18"/>
<text xml:space="preserve" text-anchor="middle" x="22" y="-84.95" font-family="Times,serif" font-size="14.00">&#45;1</text>
</g>
<!-- b&#45;&gt;c -->
<g id="edge2" class="edge">
<title>b&#45;&gt;c</title>
<path fill="none" stroke="black" d="M61.88,-146.83C55.24,-137.54 46.4,-125.15 38.72,-114.41"/>
<polygon fill="black" stroke="black" points="41.64,-112.48 32.98,-106.38 35.95,-116.55 41.64,-112.48"/>
</g>
<!-- f -->
<g id="node5" class="node">
<title>f</title>
<ellipse fill="white" stroke="black" cx="45" cy="-18" rx="18" ry="18"/>
<text xml:space="preserve" text-anchor="middle" x="45" y="-12.95" font-family="Times,serif" font-size="14.00">&#45;3</text>
</g>
<!-- b&#45;&gt;f -->
<g id="edge3" class="edge">
<title>b&#45;&gt;f</title>
<path fill="none" stroke="black" d="M68.74,-143.87C64.18,-119.88 55.84,-75.99 50.35,-47.16"/>
<polygon fill="black" stroke="black" points="53.86,-46.85 48.55,-37.68 46.98,-48.15 53.86,-46.85"/>
</g>
<!-- c&#45;&gt;f -->
<g id="edge4" class="edge">
<title>c&#45;&gt;f</title>
<path fill="none" stroke="black" d="M27.45,-72.41C30.03,-64.57 33.17,-54.99 36.09,-46.13"/>
<polygon fill="black" stroke="black" points="39.32,-47.5 39.12,-36.91 32.67,-45.32 39.32,-47.5"/>
</g>
<!-- e -->
<g id="node4" class="node">
<title>e</title>
<ellipse fill="white" stroke="black" cx="18" cy="-162" rx="18" ry="18"/>
<text xml:space="preserve" text-anchor="middle" x="18" y="-156.95" font-family="Times,serif" font-size="14.00">7</text>
</g>
<!-- e&#45;&gt;c -->
<g id="edge5" class="edge">
<title>e&#45;&gt;c</title>
<path fill="none" stroke="black" d="M13.11,-144.41C12.7,-136.63 12.99,-127.15 13.83,-118.35"/>
<polygon fill="black" stroke="black" points="17.3,-118.86 15.12,-108.49 10.35,-117.95 17.3,-118.86"/>
</g>
<!-- e&#45;&gt;c -->
<g id="edge6" class="edge">
<title>e&#45;&gt;c</title>
<path fill="none" stroke="black" d="M24.67,-145.12C25.99,-137.46 26.82,-128.05 27.02,-119.23"/>
<polygon fill="black" stroke="black" points="30.52,-119.27 26.92,-109.31 23.52,-119.35 30.52,-119.27"/>
</g>
</g>
</svg>
