<?xml version="1.0" encoding="UTF-8" standalone="no"?>
<!DOCTYPE svg PUBLIC "-//W3C//DTD SVG 1.1//EN"
 "http://www.w3.org/Graphics/SVG/1.1/DTD/svg11.dtd">
<!-- Generated by graphviz version 2.43.0 (0)
 -->
<!-- Title: g Pages: 1 -->
<svg width="98pt" height="260pt"
 viewBox="0.00 0.00 98.00 260.00" xmlns="http://www.w3.org/2000/svg" xmlns:xlink="http://www.w3.org/1999/xlink">
<g id="graph0" class="graph" transform="scale(1 1) rotate(0) translate(4 256)">
<title>g</title>
<polygon fill="white" stroke="transparent" points="-4,4 -4,-256 94,-256 94,4 -4,4"/>
<!-- a -->
<g id="node1" class="node">
<title>a</title>
<ellipse fill="white" stroke="black" cx="72" cy="-234" rx="18" ry="18"/>
<text text-anchor="middle" x="72" y="-230.3" font-family="Times,serif" font-size="14.00">5</text>
</g>
<!-- b -->
<g id="node2" class="node">
<title>b</title>
<ellipse fill="white" stroke="black" cx="72" cy="-162" rx="18" ry="18"/>
<text text-anchor="middle" x="72" y="-158.3" font-family="Times,serif" font-size="14.00">&#45;6</text>
</g>
<!-- a&#45;&gt;b -->
<g id="edge1" class="edge">
<title>a&#45;&gt;b</title>
<path fill="none" stroke="black" d="M72,-215.7C72,-207.98 72,-198.71 72,-190.11"/>
<polygon fill="black" stroke="black" points="75.5,-190.1 72,-180.1 68.5,-190.1 75.5,-190.1"/>
</g>
<!-- c -->
<g id="node3" class="node">
<title>c</title>
<ellipse fill="white" stroke="black" cx="22" cy="-90" rx="18" ry="18"/>
<text text-anchor="middle" x="22" y="-86.3" font-family="Times,serif" font-size="14.00">&#45;1</text>
</g>
<!-- b&#45;&gt;c -->
<g id="edge2" class="edge">
<title>b&#45;&gt;c</title>
<path fill="none" stroke="black" d="M61.88,-146.83C55.04,-137.25 45.85,-124.39 38.02,-113.43"/>
<polygon fill="black" stroke="black" points="40.76,-111.25 32.1,-105.14 35.07,-115.32 40.76,-111.25"/>
</g>
<!-- f -->
<g id="node5" class="node">
<title>f</title>
<ellipse fill="white" stroke="black" cx="45" cy="-18" rx="18" ry="18"/>
<text text-anchor="middle" x="45" y="-14.3" font-family="Times,serif" font-size="14.00">&#45;3</text>
</g>
<!-- b&#45;&gt;f -->
<g id="edge3" class="edge">
<title>b&#45;&gt;f</title>
<path fill="none" stroke="black" d="M68.8,-144.15C64.17,-119.81 55.57,-74.57 50.07,-45.67"/>
<polygon fill="black" stroke="black" points="53.51,-45 48.2,-35.82 46.63,-46.3 53.51,-45"/>
</g>
<!-- c&#45;&gt;f -->
<g id="edge4" class="edge">
<title>c&#45;&gt;f</title>
<path fill="none" stroke="black" d="M27.33,-72.76C30.02,-64.58 33.35,-54.45 36.39,-45.2"/>
<polygon fill="black" stroke="black" points="39.74,-46.23 39.53,-35.63 33.09,-44.04 39.74,-46.23"/>
</g>
<!-- e -->
<g id="node4" class="node">
<title>e</title>
<ellipse fill="white" stroke="black" cx="18" cy="-162" rx="18" ry="18"/>
<text text-anchor="middle" x="18" y="-158.3" font-family="Times,serif" font-size="14.00">7</text>
</g>
<!-- e&#45;&gt;c -->
<g id="edge5" class="edge">
<title>e&#45;&gt;c</title>
<path fill="none" stroke="black" d="M13.11,-144.41C12.69,-136.27 13.02,-126.28 13.95,-117.15"/>
<polygon fill="black" stroke="black" points="17.45,-117.36 15.31,-106.99 10.52,-116.43 17.45,-117.36"/>
</g>
<!-- e&#45;&gt;c -->
<g id="edge6" class="edge">
<title>e&#45;&gt;c</title>
<path fill="none" stroke="black" d="M24.67,-145.12C26.05,-137.11 26.89,-127.19 27.05,-118.03"/>
<polygon fill="black" stroke="black" points="30.54,-117.75 26.9,-107.8 23.54,-117.85 30.54,-117.75"/>
</g>
</g>
</svg>
