<?xml version="1.0" encoding="UTF-8" standalone="no"?>
<!DOCTYPE svg PUBLIC "-//W3C//DTD SVG 1.1//EN"
 "http://www.w3.org/Graphics/SVG/1.1/DTD/svg11.dtd">
<!-- Generated by graphviz version 14.0.1 (20251006.0113)
 -->
<!-- Title: g Pages: 1 -->
<svg width="159pt" height="506pt"
 viewBox="0.00 0.00 159.00 506.00" xmlns="http://www.w3.org/2000/svg" xmlns:xlink="http://www.w3.org/1999/xlink">
<g id="graph0" class="graph" transform="scale(1 1) rotate(0) translate(4 502)">
<title>g</title>
<polygon fill="white" stroke="none" points="-4,4 -4,-502 154.97,-502 154.97,4 -4,4"/>
<!-- s -->
<g id="node1" class="node">
<title>s</title>
<ellipse fill="white" stroke="black" cx="109.97" cy="-480" rx="18" ry="18"/>
<text xml:space="preserve" text-anchor="middle" x="109.97" y="-474.95" font-family="Times,serif" font-size="14.00">S</text>
</g>
<!-- a -->
<g id="node3" class="node">
<title>a</title>
<ellipse fill="white" stroke="black" cx="86.97" cy="-391.5" rx="18" ry="18"/>
<text xml:space="preserve" text-anchor="middle" x="86.97" y="-386.45" font-family="Times,serif" font-size="14.00">5</text>
</g>
<!-- s&#45;&gt;a -->
<g id="edge7" class="edge">
<title>s&#45;&gt;a</title>
<path fill="none" stroke="Blue" d="M105.54,-462.32C102.37,-450.43 98.05,-434.17 94.37,-420.33"/>
<polygon fill="Blue" stroke="Blue" points="97.81,-419.65 91.86,-410.88 91.05,-421.45 97.81,-419.65"/>
<text xml:space="preserve" text-anchor="middle" x="103.91" y="-430.7" font-family="Times,serif" font-size="14.00">5</text>
</g>
<!-- e -->
<g id="node6" class="node">
<title>e</title>
<ellipse fill="white" stroke="black" cx="132.97" cy="-337.5" rx="18" ry="18"/>
<text xml:space="preserve" text-anchor="middle" x="132.97" y="-332.45" font-family="Times,serif" font-size="14.00">7</text>
</g>
<!-- s&#45;&gt;e -->
<g id="edge8" class="edge">
<title>s&#45;&gt;e</title>
<path fill="none" stroke="Blue" stroke-dasharray="1,5" d="M112.79,-461.77C116.67,-438.05 123.71,-395.04 128.37,-366.62"/>
<polygon fill="Blue" stroke="Blue" points="131.79,-367.36 129.95,-356.92 124.88,-366.23 131.79,-367.36"/>
<text xml:space="preserve" text-anchor="middle" x="121.44" y="-430.7" font-family="Times,serif" font-size="14.00">7</text>
</g>
<!-- t -->
<g id="node2" class="node">
<title>t</title>
<ellipse fill="white" stroke="black" cx="30.97" cy="-18" rx="18" ry="18"/>
<text xml:space="preserve" text-anchor="middle" x="30.97" y="-12.95" font-family="Times,serif" font-size="14.00">T</text>
</g>
<!-- b -->
<g id="node4" class="node">
<title>b</title>
<ellipse fill="white" stroke="black" cx="30.97" cy="-283.5" rx="18" ry="18"/>
<text xml:space="preserve" text-anchor="middle" x="30.97" y="-278.45" font-family="Times,serif" font-size="14.00">&#45;6</text>
</g>
<!-- a&#45;&gt;b -->
<g id="edge1" class="edge">
<title>a&#45;&gt;b</title>
<path fill="none" stroke="red" d="M76.7,-376.54C72.29,-370.27 67.24,-362.67 63.22,-355.5 55.25,-341.29 47.65,-324.76 41.83,-311.22"/>
<polygon fill="red" stroke="red" points="45.08,-309.93 37.98,-302.07 38.63,-312.64 45.08,-309.93"/>
<text xml:space="preserve" text-anchor="middle" x="68.1" y="-332.45" font-family="Times,serif" font-size="14.00">∞</text>
</g>
<!-- c -->
<g id="node5" class="node">
<title>c</title>
<ellipse fill="white" stroke="black" cx="86.97" cy="-195" rx="18" ry="18"/>
<text xml:space="preserve" text-anchor="middle" x="86.97" y="-189.95" font-family="Times,serif" font-size="14.00">&#45;1</text>
</g>
<!-- a&#45;&gt;c -->
<g id="edge5" class="edge">
<title>a&#45;&gt;c</title>
<path fill="none" stroke="red" d="M86.97,-373.24C86.97,-339.72 86.97,-265.51 86.97,-224.55"/>
<polygon fill="red" stroke="red" points="90.47,-224.74 86.97,-214.74 83.47,-224.74 90.47,-224.74"/>
<text xml:space="preserve" text-anchor="middle" x="91.85" y="-278.45" font-family="Times,serif" font-size="14.00">∞</text>
</g>
<!-- b&#45;&gt;t -->
<g id="edge9" class="edge">
<title>b&#45;&gt;t</title>
<path fill="none" stroke="Blue" stroke-dasharray="1,5" d="M25.11,-266.06C13.93,-232.52 -8.28,-153.84 3.97,-88.5 6.77,-73.54 12.7,-57.67 18.28,-44.87"/>
<polygon fill="Blue" stroke="Blue" points="21.41,-46.44 22.39,-35.89 15.05,-43.53 21.41,-46.44"/>
<text xml:space="preserve" text-anchor="middle" x="5.06" y="-145.7" font-family="Times,serif" font-size="14.00">6</text>
</g>
<!-- b&#45;&gt;c -->
<g id="edge2" class="edge">
<title>b&#45;&gt;c</title>
<path fill="none" stroke="red" d="M40.14,-267.53C46.52,-257.21 55.27,-243.19 63.22,-231 65.61,-227.34 68.17,-223.49 70.69,-219.74"/>
<polygon fill="red" stroke="red" points="73.58,-221.72 76.29,-211.48 67.78,-217.79 73.58,-221.72"/>
<text xml:space="preserve" text-anchor="middle" x="68.1" y="-234.2" font-family="Times,serif" font-size="14.00">∞</text>
</g>
<!-- f -->
<g id="node7" class="node">
<title>f</title>
<ellipse fill="white" stroke="black" cx="30.97" cy="-106.5" rx="18" ry="18"/>
<text xml:space="preserve" text-anchor="middle" x="30.97" y="-101.45" font-family="Times,serif" font-size="14.00">&#45;3</text>
</g>
<!-- b&#45;&gt;f -->
<g id="edge3" class="edge">
<title>b&#45;&gt;f</title>
<path fill="none" stroke="red" d="M30.97,-265.08C30.97,-234.94 30.97,-172.8 30.97,-136.2"/>
<polygon fill="red" stroke="red" points="34.47,-136.36 30.97,-126.36 27.47,-136.36 34.47,-136.36"/>
<text xml:space="preserve" text-anchor="middle" x="35.85" y="-189.95" font-family="Times,serif" font-size="14.00">∞</text>
</g>
<!-- c&#45;&gt;t -->
<g id="edge10" class="edge">
<title>c&#45;&gt;t</title>
<path fill="none" stroke="Blue" stroke-dasharray="1,5" d="M82.45,-177.29C79.72,-167.21 76.16,-154.11 72.97,-142.5 66.37,-118.48 65.82,-112.14 57.97,-88.5 53.2,-74.15 47.17,-58.43 42.01,-45.58"/>
<polygon fill="Blue" stroke="Blue" points="45.34,-44.47 38.33,-36.53 38.86,-47.11 45.34,-44.47"/>
<text xml:space="preserve" text-anchor="middle" x="71.54" y="-101.45" font-family="Times,serif" font-size="14.00">1</text>
</g>
<!-- c&#45;&gt;f -->
<g id="edge4" class="edge">
<title>c&#45;&gt;f</title>
<path fill="none" stroke="red" d="M77.14,-179.78C72.82,-173.45 67.71,-165.89 63.22,-159 57.57,-150.33 51.51,-140.74 46.19,-132.21"/>
<polygon fill="red" stroke="red" points="49.19,-130.4 40.94,-123.75 43.24,-134.09 49.19,-130.4"/>
<text xml:space="preserve" text-anchor="middle" x="68.1" y="-145.7" font-family="Times,serif" font-size="14.00">∞</text>
</g>
<!-- e&#45;&gt;c -->
<g id="edge6" class="edge">
<title>e&#45;&gt;c</title>
<path fill="none" stroke="red" d="M128.42,-319.91C122.57,-299.01 111.87,-262.06 100.97,-231 100,-228.24 98.95,-225.39 97.86,-222.54"/>
<polygon fill="red" stroke="red" points="101.15,-221.35 94.23,-213.33 94.64,-223.92 101.15,-221.35"/>
<text xml:space="preserve" text-anchor="middle" x="127.93" y="-278.45" font-family="Times,serif" font-size="14.00">∞</text>
</g>
<!-- f&#45;&gt;t -->
<g id="edge11" class="edge">
<title>f&#45;&gt;t</title>
<path fill="none" stroke="Blue" stroke-dasharray="1,5" d="M30.97,-88.41C30.97,-76.76 30.97,-61.05 30.97,-47.52"/>
<polygon fill="Blue" stroke="Blue" points="34.47,-47.86 30.97,-37.86 27.47,-47.86 34.47,-47.86"/>
<text xml:space="preserve" text-anchor="middle" x="34.35" y="-57.2" font-family="Times,serif" font-size="14.00">3</text>
</g>
</g>
</svg>
