<?xml version="1.0" encoding="UTF-8" standalone="no"?>
<!DOCTYPE svg PUBLIC "-//W3C//DTD SVG 1.1//EN"
 "http://www.w3.org/Graphics/SVG/1.1/DTD/svg11.dtd">
<!-- Generated by graphviz version 10.0.1 (0)
 -->
<!-- Title: G Pages: 1 -->
<svg width="224pt" height="410pt"
 viewBox="0.00 0.00 224.00 409.50" xmlns="http://www.w3.org/2000/svg" xmlns:xlink="http://www.w3.org/1999/xlink">
<g id="graph0" class="graph" transform="scale(1 1) rotate(0) translate(4 405.5)">
<title>G</title>
<polygon fill="white" stroke="none" points="-4,4 -4,-405.5 220,-405.5 220,4 -4,4"/>
<g id="clust1" class="cluster">
<title>cluster_0</title>
<polygon fill="lightgrey" stroke="lightgrey" points="8,-66.5 8,-357.5 98,-357.5 98,-66.5 8,-66.5"/>
<text text-anchor="middle" x="53" y="-340.2" font-family="Helvetica,Arial,sans-serif" font-size="14.00">process #1</text>
</g>
<g id="clust2" class="cluster">
<title>cluster_1</title>
<polygon fill="none" stroke="blue" points="126,-66.5 126,-357.5 208,-357.5 208,-66.5 126,-66.5"/>
<text text-anchor="middle" x="167" y="-340.2" font-family="Helvetica,Arial,sans-serif" font-size="14.00">process #2</text>
</g>
<!-- a0 -->
<g id="node1" class="node">
<title>a0</title>
<ellipse fill="white" stroke="white" cx="63" cy="-308.5" rx="27" ry="18"/>
<text text-anchor="middle" x="63" y="-302.7" font-family="Helvetica,Arial,sans-serif" font-size="14.00">a0</text>
</g>
<!-- a1 -->
<g id="node2" class="node">
<title>a1</title>
<ellipse fill="white" stroke="white" cx="63" cy="-236.5" rx="27" ry="18"/>
<text text-anchor="middle" x="63" y="-230.7" font-family="Helvetica,Arial,sans-serif" font-size="14.00">a1</text>
</g>
<!-- a0&#45;&gt;a1 -->
<g id="edge1" class="edge">
<title>a0&#45;&gt;a1</title>
<path fill="none" stroke="black" d="M63,-290.2C63,-282.91 63,-274.23 63,-266.04"/>
<polygon fill="black" stroke="black" points="66.5,-266.12 63,-256.12 59.5,-266.12 66.5,-266.12"/>
</g>
<!-- a2 -->
<g id="node3" class="node">
<title>a2</title>
<ellipse fill="white" stroke="white" cx="63" cy="-164.5" rx="27" ry="18"/>
<text text-anchor="middle" x="63" y="-158.7" font-family="Helvetica,Arial,sans-serif" font-size="14.00">a2</text>
</g>
<!-- a1&#45;&gt;a2 -->
<g id="edge2" class="edge">
<title>a1&#45;&gt;a2</title>
<path fill="none" stroke="black" d="M63,-218.2C63,-210.91 63,-202.23 63,-194.04"/>
<polygon fill="black" stroke="black" points="66.5,-194.12 63,-184.12 59.5,-194.12 66.5,-194.12"/>
</g>
<!-- b3 -->
<g id="node8" class="node">
<title>b3</title>
<ellipse fill="lightgrey" stroke="black" cx="161" cy="-92.5" rx="27" ry="18"/>
<text text-anchor="middle" x="161" y="-86.7" font-family="Helvetica,Arial,sans-serif" font-size="14.00">b3</text>
</g>
<!-- a1&#45;&gt;b3 -->
<g id="edge9" class="edge">
<title>a1&#45;&gt;b3</title>
<path fill="none" stroke="black" d="M73.86,-219.76C90.79,-195.24 123.6,-147.7 143.77,-118.46"/>
<polygon fill="black" stroke="black" points="146.43,-120.77 149.23,-110.56 140.67,-116.8 146.43,-120.77"/>
</g>
<!-- a3 -->
<g id="node4" class="node">
<title>a3</title>
<ellipse fill="white" stroke="white" cx="63" cy="-92.5" rx="27" ry="18"/>
<text text-anchor="middle" x="63" y="-86.7" font-family="Helvetica,Arial,sans-serif" font-size="14.00">a3</text>
</g>
<!-- a2&#45;&gt;a3 -->
<g id="edge3" class="edge">
<title>a2&#45;&gt;a3</title>
<path fill="none" stroke="black" d="M63,-146.2C63,-138.91 63,-130.23 63,-122.04"/>
<polygon fill="black" stroke="black" points="66.5,-122.12 63,-112.12 59.5,-122.12 66.5,-122.12"/>
</g>
<!-- a3&#45;&gt;a0 -->
<g id="edge11" class="edge">
<title>a3&#45;&gt;a0</title>
<path fill="none" stroke="black" d="M49.25,-108.43C41.04,-118.4 31.38,-132.25 27,-146.5 12.89,-192.38 12.89,-208.62 27,-254.5 30.18,-264.85 36.15,-274.99 42.33,-283.59"/>
<polygon fill="black" stroke="black" points="39.45,-285.59 48.33,-291.37 44.99,-281.31 39.45,-285.59"/>
</g>
<!-- end -->
<g id="node10" class="node">
<title>end</title>
<polygon fill="none" stroke="black" points="131.25,-38.5 92.75,-38.5 92.75,0 131.25,0 131.25,-38.5"/>
<polyline fill="none" stroke="black" points="104.75,-38.5 92.75,-26.5"/>
<polyline fill="none" stroke="black" points="92.75,-12 104.75,0"/>
<polyline fill="none" stroke="black" points="119.25,0 131.25,-12"/>
<polyline fill="none" stroke="black" points="131.25,-26.5 119.25,-38.5"/>
<text text-anchor="middle" x="112" y="-13.45" font-family="Helvetica,Arial,sans-serif" font-size="14.00">end</text>
</g>
<!-- a3&#45;&gt;end -->
<g id="edge12" class="edge">
<title>a3&#45;&gt;end</title>
<path fill="none" stroke="black" d="M73.87,-75.69C79.44,-67.59 86.38,-57.5 92.81,-48.15"/>
<polygon fill="black" stroke="black" points="95.61,-50.26 98.39,-40.04 89.84,-46.3 95.61,-50.26"/>
</g>
<!-- b0 -->
<g id="node5" class="node">
<title>b0</title>
<ellipse fill="lightgrey" stroke="black" cx="161" cy="-308.5" rx="27" ry="18"/>
<text text-anchor="middle" x="161" y="-302.7" font-family="Helvetica,Arial,sans-serif" font-size="14.00">b0</text>
</g>
<!-- b1 -->
<g id="node6" class="node">
<title>b1</title>
<ellipse fill="lightgrey" stroke="black" cx="167" cy="-236.5" rx="27" ry="18"/>
<text text-anchor="middle" x="167" y="-230.7" font-family="Helvetica,Arial,sans-serif" font-size="14.00">b1</text>
</g>
<!-- b0&#45;&gt;b1 -->
<g id="edge4" class="edge">
<title>b0&#45;&gt;b1</title>
<path fill="none" stroke="black" d="M162.48,-290.2C163.11,-282.91 163.85,-274.23 164.55,-266.04"/>
<polygon fill="black" stroke="black" points="168.04,-266.37 165.4,-256.11 161.06,-265.78 168.04,-266.37"/>
</g>
<!-- b2 -->
<g id="node7" class="node">
<title>b2</title>
<ellipse fill="lightgrey" stroke="black" cx="173" cy="-164.5" rx="27" ry="18"/>
<text text-anchor="middle" x="173" y="-158.7" font-family="Helvetica,Arial,sans-serif" font-size="14.00">b2</text>
</g>
<!-- b1&#45;&gt;b2 -->
<g id="edge5" class="edge">
<title>b1&#45;&gt;b2</title>
<path fill="none" stroke="black" d="M168.48,-218.2C169.11,-210.91 169.85,-202.23 170.55,-194.04"/>
<polygon fill="black" stroke="black" points="174.04,-194.37 171.4,-184.11 167.06,-193.78 174.04,-194.37"/>
</g>
<!-- b2&#45;&gt;a3 -->
<g id="edge10" class="edge">
<title>b2&#45;&gt;a3</title>
<path fill="none" stroke="black" d="M153.84,-151.31C136.65,-140.37 111.18,-124.16 91.58,-111.69"/>
<polygon fill="black" stroke="black" points="93.53,-108.78 83.22,-106.37 89.78,-114.69 93.53,-108.78"/>
</g>
<!-- b2&#45;&gt;b3 -->
<g id="edge6" class="edge">
<title>b2&#45;&gt;b3</title>
<path fill="none" stroke="black" d="M170.03,-146.2C168.77,-138.82 167.26,-130.02 165.84,-121.75"/>
<polygon fill="black" stroke="black" points="169.33,-121.36 164.19,-112.1 162.43,-122.54 169.33,-121.36"/>
</g>
<!-- b3&#45;&gt;end -->
<g id="edge13" class="edge">
<title>b3&#45;&gt;end</title>
<path fill="none" stroke="black" d="M150.13,-75.69C144.56,-67.59 137.62,-57.5 131.19,-48.15"/>
<polygon fill="black" stroke="black" points="134.16,-46.3 125.61,-40.04 128.39,-50.26 134.16,-46.3"/>
</g>
<!-- start -->
<g id="node9" class="node">
<title>start</title>
<polygon fill="none" stroke="black" points="112,-401.5 72.48,-383.5 112,-365.5 151.52,-383.5 112,-401.5"/>
<polyline fill="none" stroke="black" points="83.4,-388.47 83.4,-378.53"/>
<polyline fill="none" stroke="black" points="101.08,-370.47 122.92,-370.47"/>
<polyline fill="none" stroke="black" points="140.6,-378.53 140.6,-388.47"/>
<polyline fill="none" stroke="black" points="122.92,-396.53 101.08,-396.53"/>
<text text-anchor="middle" x="112" y="-377.7" font-family="Helvetica,Arial,sans-serif" font-size="14.00">start</text>
</g>
<!-- start&#45;&gt;a0 -->
<g id="edge7" class="edge">
<title>start&#45;&gt;a0</title>
<path fill="none" stroke="black" d="M103.01,-369.11C96.54,-359.46 87.61,-346.16 79.82,-334.56"/>
<polygon fill="black" stroke="black" points="82.96,-332.95 74.48,-326.6 77.15,-336.86 82.96,-332.95"/>
</g>
<!-- start&#45;&gt;b0 -->
<g id="edge8" class="edge">
<title>start&#45;&gt;b0</title>
<path fill="none" stroke="black" d="M120.99,-369.11C127.46,-359.46 136.39,-346.16 144.18,-334.56"/>
<polygon fill="black" stroke="black" points="146.85,-336.86 149.52,-326.6 141.04,-332.95 146.85,-336.86"/>
</g>
</g>
</svg>
